<svg xmlns="http://www.w3.org/2000/svg">
  <symbol id="arrow-right" viewBox="0 0 24 24"><line x1="5" y1="12" x2="19" y2="12"/><polyline points="12 5 19 12 12 19"/></symbol>
  <symbol id="arrow-up" viewBox="0 0 24 24"><line x1="12" y1="19" x2="12" y2="5"/><polyline points="5 12 12 5 19 12"/></symbol>
  <symbol id="check" viewBox="0 0 24 24"><polyline points="20 6 9 17 4 12"/></symbol>
  <symbol id="plus" viewBox="0 0 24 24"><line x1="12" y1="5" x2="12" y2="19"/><line x1="5" y1="12" x2="19" y2="12"/></symbol>
  <symbol id="exit" viewBox="0 0 24 24"><path d="M9 21H5a2 2 0 0 1-2-2V5a2 2 0 0 1 2-2h4"/><polyline points="16 17 21 12 16 7"/><line x1="21" y1="12" x2="9" y2="12"/></symbol>
  <symbol id="phone" viewBox="0 0 24 24"><path d="M22 16.92v3a2 2 0 0 1-2.18 2 19.79 19.79 0 0 1-8.63-3.07 19.5 19.5 0 0 1-6-6 19.79 19.79 0 0 1-3.07-8.67A2 2 0 0 1 4.11 2h3a2 2 0 0 1 2 1.72 12.84 12.84 0 0 0 .7 2.81 2 2 0 0 1-.45 2.11L8.09 9.91a16 16 0 0 0 6 6l1.27-1.27a2 2 0 0 1 2.11-.45 12.84 12.84 0 0 0 2.81.7A2 2 0 0 1 22 16.92z"/></symbol>
  <symbol id="mail" viewBox="0 0 24 24"><path d="M4 4h16c1.1 0 2 .9 2 2v12c0 1.1-.9 2-2 2H4c-1.1 0-2-.9-2-2V6c0-1.1.9-2 2-2z"/><polyline points="22 6 12 13 2 6"/></symbol>
  <symbol id="map-pin" viewBox="0 0 24 24"><path d="M21 10c0 7-9 13-9 13s-9-6-9-13a9 9 0 0 1 18 0z"/><circle cx="12" cy="10" r="3"/></symbol>
  <symbol id="clock" viewBox="0 0 24 24"><circle cx="12" cy="12" r="10"/><polyline points="12 6 12 12 16 14"/></symbol>
  <symbol id="calendar" viewBox="0 0 24 24"><rect x="3" y="4" width="18" height="18" rx="2"/><line x1="16" y1="2" x2="16" y2="6"/><line x1="8" y1="2" x2="8" y2="6"/><line x1="3" y1="10" x2="21" y2="10"/></symbol>
  <symbol id="message" viewBox="0 0 24 24"><path d="M21 15a2 2 0 0 1-2 2H7l-4 4V5a2 2 0 0 1 2-2h14a2 2 0 0 1 2 2z"/></symbol>
  <symbol id="image" viewBox="0 0 24 24"><rect x="3" y="3" width="18" height="18" rx="2"/><circle cx="8.5" cy="8.5" r="1.5"/><polyline points="21 15 16 10 5 21"/></symbol>
  <symbol id="video-off" viewBox="0 0 24 24"><path d="M16 16v1a2 2 0 0 1-2 2H3a2 2 0 0 1-2-2V7a2 2 0 0 1 2-2h2m5.66 0H14a2 2 0 0 1 2 2v3.34l1 1L23 7v10"/><line x1="1" y1="1" x2="23" y2="23"/></symbol>
  <symbol id="crosshair" viewBox="0 0 24 24"><circle cx="12" cy="12" r="10"/><line x1="22" y1="12" x2="18" y2="12"/><line x1="6" y1="12" x2="2" y2="12"/><line x1="12" y1="6" x2="12" y2="2"/><line x1="12" y1="22" x2="12" y2="18"/></symbol>
  <symbol id="key" viewBox="0 0 24 24"><path d="M21 2l-2 2m-7.61 7.61a5.5 5.5 0 1 1-7.78 7.78 5.5 5.5 0 0 1 7.78-7.78zm0 0L15.5 7.5m0 0l3 3L22 7l-3-3m-3.5 3.5L19 4"/></symbol>
  <symbol id="alert-octagon" viewBox="0 0 24 24"><polygon points="7.86 2 16.14 2 22 7.86 22 16.14 16.14 22 7.86 22 2 16.14 2 7.86 7.86 2"/><line x1="12" y1="8" x2="12" y2="12"/><line x1="12" y1="16" x2="12.01" y2="16"/></symbol>
  <symbol id="alert-triangle" viewBox="0 0 24 24"><path d="M10.29 3.86L1.82 18a2 2 0 0 0 1.71 3h16.94a2 2 0 0 0 1.71-3L13.71 3.86a2 2 0 0 0-3.42 0z"/><line x1="12" y1="9" x2="12" y2="13"/><line x1="12" y1="17" x2="12.01" y2="17"/></symbol>
  <symbol id="credit-card" viewBox="0 0 24 24"><rect x="1" y="4" width="22" height="16" rx="2"/><line x1="1" y1="10" x2="23" y2="10"/></symbol>
  <symbol id="user-x" viewBox="0 0 24 24"><path d="M16 21v-2a4 4 0 0 0-4-4H5a4 4 0 0 0-4 4v2"/><circle cx="8.5" cy="7" r="4"/><line x1="18" y1="8" x2="23" y2="13"/><line x1="23" y1="8" x2="18" y2="13"/></symbol>
  <symbol id="shield-off" viewBox="0 0 24 24"><path d="M19.69 14a6.9 6.9 0 0 0 .31-2V5l-8-3-3.16 1.18"/><path d="M4.73 4.73L4 5v7c0 6 8 10 8 10a20.29 20.29 0 0 0 5.62-4.38"/><line x1="1" y1="1" x2="23" y2="23"/></symbol>
  <symbol id="eye-off" viewBox="0 0 24 24"><path d="M17.94 17.94A10.07 10.07 0 0 1 12 20c-7 0-11-8-11-8a18.45 18.45 0 0 1 5.06-5.94M9.9 4.24A9.12 9.12 0 0 1 12 4c7 0 11 8 11 8a18.5 18.5 0 0 1-2.16 3.19m-6.72-1.07a3 3 0 1 1-4.24-4.24"/><line x1="1" y1="1" x2="23" y2="23"/></symbol>
  <symbol id="eye" viewBox="0 0 24 24"><path d="M1 12s4-8 11-8 11 8 11 8-4 8-11 8-11-8-11-8z"/><circle cx="12" cy="12" r="3"/></symbol>
  <symbol id="lock" viewBox="0 0 24 24"><rect x="3" y="11" width="18" height="11" rx="2"/><path d="M7 11V7a5 5 0 0 1 10 0v4"/></symbol>
  <symbol id="unlock" viewBox="0 0 24 24"><rect x="3" y="11" width="18" height="11" rx="2"/><path d="M7 11V7a5 5 0 0 1 9.9-1"/></symbol>
  <symbol id="shield" viewBox="0 0 24 24"><path d="M12 22s8-4 8-10V5l-8-3-8 3v7c0 6 8 10 8 10z"/></symbol>
  <symbol id="shield-check" viewBox="0 0 24 24"><path d="M12 22s8-4 8-10V5l-8-3-8 3v7c0 6 8 10 8 10z"/><polyline points="9 12 11 14 15 10"/></symbol>
  <symbol id="refresh" viewBox="0 0 24 24"><polyline points="23 4 23 10 17 10"/><polyline points="1 20 1 14 7 14"/><path d="M3.51 9a9 9 0 0 1 14.85-3.36L23 10M1 14l4.64 4.36A9 9 0 0 0 20.49 15"/></symbol>
  <symbol id="scan" viewBox="0 0 24 24"><path d="M3 7V5a2 2 0 0 1 2-2h2"/><path d="M17 3h2a2 2 0 0 1 2 2v2"/><path d="M21 17v2a2 2 0 0 1-2 2h-2"/><path d="M7 21H5a2 2 0 0 1-2-2v-2"/><circle cx="12" cy="12" r="3"/></symbol>
  <symbol id="file-text" viewBox="0 0 24 24"><path d="M14 2H6a2 2 0 0 0-2 2v16a2 2 0 0 0 2 2h12a2 2 0 0 0 2-2V8z"/><polyline points="14 2 14 8 20 8"/><line x1="16" y1="13" x2="8" y2="13"/><line x1="16" y1="17" x2="8" y2="17"/></symbol>
  <symbol id="users" viewBox="0 0 24 24"><path d="M17 21v-2a4 4 0 0 0-4-4H5a4 4 0 0 0-4 4v2"/><circle cx="9" cy="7" r="4"/><path d="M23 21v-2a4 4 0 0 0-3-3.87"/><path d="M16 3.13a4 4 0 0 1 0 7.75"/></symbol>
  <symbol id="user" viewBox="0 0 24 24"><path d="M20 21v-2a4 4 0 0 0-4-4H8a4 4 0 0 0-4 4v2"/><circle cx="12" cy="7" r="4"/></symbol>
  <symbol id="landmark" viewBox="0 0 24 24"><line x1="3" y1="22" x2="21" y2="22"/><line x1="6" y1="18" x2="6" y2="11"/><line x1="10" y1="18" x2="10" y2="11"/><line x1="14" y1="18" x2="14" y2="11"/><line x1="18" y1="18" x2="18" y2="11"/><polygon points="12 2 21 7 3 7"/></symbol>
  <symbol id="heart" viewBox="0 0 24 24"><path d="M20.84 4.61a5.5 5.5 0 0 0-7.78 0L12 5.67l-1.06-1.06a5.5 5.5 0 0 0-7.78 7.78l1.06 1.06L12 21.23l7.78-7.78 1.06-1.06a5.5 5.5 0 0 0 0-7.78z"/></symbol>
  <symbol id="life-buoy" viewBox="0 0 24 24"><circle cx="12" cy="12" r="10"/><circle cx="12" cy="12" r="4"/><line x1="4.93" y1="4.93" x2="9.17" y2="9.17"/><line x1="14.83" y1="14.83" x2="19.07" y2="19.07"/><line x1="14.83" y1="9.17" x2="19.07" y2="4.93"/><line x1="4.93" y1="19.07" x2="9.17" y2="14.83"/></symbol>
  <symbol id="briefcase" viewBox="0 0 24 24"><rect x="2" y="7" width="20" height="14" rx="2"/><path d="M16 21V5a2 2 0 0 0-2-2h-4a2 2 0 0 0-2 2v16"/></symbol>
  <symbol id="activity" viewBox="0 0 24 24"><polyline points="22 12 18 12 15 21 9 3 6 12 2 12"/></symbol>
  <symbol id="globe" viewBox="0 0 24 24"><circle cx="12" cy="12" r="10"/><line x1="2" y1="12" x2="22" y2="12"/><path d="M12 2a15.3 15.3 0 0 1 4 10 15.3 15.3 0 0 1-4 10 15.3 15.3 0 0 1-4-10 15.3 15.3 0 0 1 4-10z"/></symbol>
  <symbol id="book-open" viewBox="0 0 24 24"><path d="M2 3h6a4 4 0 0 1 4 4v14a3 3 0 0 0-3-3H2z"/><path d="M22 3h-6a4 4 0 0 0-4 4v14a3 3 0 0 1 3-3h7z"/></symbol>
  <symbol id="trash" viewBox="0 0 24 24"><polyline points="3 6 5 6 21 6"/><path d="M19 6v14a2 2 0 0 1-2 2H7a2 2 0 0 1-2-2V6m3 0V4a2 2 0 0 1 2-2h4a2 2 0 0 1 2 2v2"/></symbol>
  <symbol id="monitor" viewBox="0 0 24 24"><rect x="2" y="3" width="20" height="14" rx="2"/><line x1="8" y1="21" x2="16" y2="21"/><line x1="12" y1="17" x2="12" y2="21"/></symbol>
  <symbol id="smartphone" viewBox="0 0 24 24"><rect x="5" y="2" width="14" height="20" rx="2"/><line x1="12" y1="18" x2="12.01" y2="18"/></symbol>
  <symbol id="flag" viewBox="0 0 24 24"><path d="M4 15s1-1 4-1 5 2 8 2 4-1 4-1V3s-1 1-4 1-5-2-8-2-4 1-4 1z"/><line x1="4" y1="22" x2="4" y2="15"/></symbol>
  <symbol id="share" viewBox="0 0 24 24"><circle cx="18" cy="5" r="3"/><circle cx="6" cy="12" r="3"/><circle cx="18" cy="19" r="3"/><line x1="8.59" y1="13.51" x2="15.42" y2="17.49"/><line x1="15.41" y1="6.51" x2="8.59" y2="10.49"/></symbol>
  <symbol id="mic" viewBox="0 0 24 24"><path d="M12 1a3 3 0 0 0-3 3v8a3 3 0 0 0 6 0V4a3 3 0 0 0-3-3z"/><path d="M19 10v2a7 7 0 0 1-14 0v-2"/><line x1="12" y1="19" x2="12" y2="23"/><line x1="8" y1="23" x2="16" y2="23"/></symbol>
  <symbol id="search" viewBox="0 0 24 24"><circle cx="11" cy="11" r="8"/><line x1="21" y1="21" x2="16.65" y2="16.65"/></symbol>
  <symbol id="target" viewBox="0 0 24 24"><circle cx="12" cy="12" r="10"/><circle cx="12" cy="12" r="6"/><circle cx="12" cy="12" r="2"/></symbol>
  <symbol id="info" viewBox="0 0 24 24"><circle cx="12" cy="12" r="10"/><line x1="12" y1="16" x2="12" y2="12"/><line x1="12" y1="8" x2="12.01" y2="8"/></symbol>
  <symbol id="camera" viewBox="0 0 24 24"><path d="M23 19a2 2 0 0 1-2 2H3a2 2 0 0 1-2-2V8a2 2 0 0 1 2-2h4l2-3h6l2 3h4a2 2 0 0 1 2 2z"/><circle cx="12" cy="13" r="4"/></symbol>
  <symbol id="award" viewBox="0 0 24 24"><circle cx="12" cy="8" r="7"/><polyline points="8.21 13.89 7 23 12 20 17 23 15.79 13.88"/></symbol>
  <symbol id="chevron-down" viewBox="0 0 24 24"><polyline points="6 9 12 15 18 9"/></symbol>
  <symbol id="copy" viewBox="0 0 24 24"><rect x="9" y="9" width="13" height="13" rx="2"/><path d="M5 15H4a2 2 0 0 1-2-2V4a2 2 0 0 1 2-2h9a2 2 0 0 1 2 2v1"/></symbol>
  <symbol id="database" viewBox="0 0 24 24"><ellipse cx="12" cy="5" rx="9" ry="3"/><path d="M21 12c0 1.66-4 3-9 3s-9-1.34-9-3"/><path d="M3 5v14c0 1.66 4 3 9 3s9-1.34 9-3V5"/></symbol>
  <symbol id="check-circle" viewBox="0 0 24 24"><path d="M22 11.08V12a10 10 0 1 1-5.93-9.14"/><polyline points="22 4 12 14.01 9 11.01"/></symbol>
  <symbol id="message-circle" viewBox="0 0 24 24"><path d="M21 11.5a8.38 8.38 0 0 1-.9 3.8 8.5 8.5 0 0 1-7.6 4.7 8.38 8.38 0 0 1-3.8-.9L3 21l1.9-5.7a8.38 8.38 0 0 1-.9-3.8 8.5 8.5 0 0 1 4.7-7.6 8.38 8.38 0 0 1 3.8-.9h.5a8.48 8.48 0 0 1 8 8v.5z"/></symbol>
  <symbol id="bar-chart" viewBox="0 0 24 24"><line x1="18" y1="20" x2="18" y2="10"/><line x1="12" y1="20" x2="12" y2="4"/><line x1="6" y1="20" x2="6" y2="14"/></symbol>
  <symbol id="download" viewBox="0 0 24 24"><path d="M21 15v4a2 2 0 0 1-2 2H5a2 2 0 0 1-2-2v-4"/><polyline points="7 10 12 15 17 10"/><line x1="12" y1="15" x2="12" y2="3"/></symbol>
  <symbol id="layers" viewBox="0 0 24 24"><polygon points="12 2 2 7 12 12 22 7 12 2"/><polyline points="2 17 12 22 22 17"/><polyline points="2 12 12 17 22 12"/></symbol>
  <symbol id="trending-up" viewBox="0 0 24 24"><polyline points="23 6 13.5 15.5 8.5 10.5 1 18"/><polyline points="17 6 23 6 23 12"/></symbol>
  <symbol id="wifi" viewBox="0 0 24 24"><path d="M5 12.55a11 11 0 0 1 14.08 0"/><path d="M1.42 9a16 16 0 0 1 21.16 0"/><path d="M8.53 16.11a6 6 0 0 1 6.95 0"/><line x1="12" y1="20" x2="12.01" y2="20"/></symbol>
  <symbol id="facebook" viewBox="0 0 24 24"><path d="M18 2h-3a5 5 0 0 0-5 5v3H7v4h3v8h4v-8h3l1-4h-4V7a1 1 0 0 1 1-1h3z"/></symbol>
  <symbol id="instagram" viewBox="0 0 24 24"><rect x="2" y="2" width="20" height="20" rx="5"/><path d="M16 11.37A4 4 0 1 1 12.63 8 4 4 0 0 1 16 11.37z"/><line x1="17.5" y1="6.5" x2="17.51" y2="6.5"/></symbol>
  <symbol id="linkedin" viewBox="0 0 24 24"><path d="M16 8a6 6 0 0 1 6 6v7h-4v-7a2 2 0 0 0-4 0v7h-4v-7a6 6 0 0 1 6-6z"/><rect x="2" y="9" width="4" height="12"/><circle cx="4" cy="4" r="2"/></symbol>
  <symbol id="youtube" viewBox="0 0 24 24"><path d="M22.54 6.42a2.78 2.78 0 0 0-1.94-2C18.88 4 12 4 12 4s-6.88 0-8.6.46a2.78 2.78 0 0 0-1.94 2A29 29 0 0 0 1 11.75a29 29 0 0 0 .46 5.33A2.78 2.78 0 0 0 3.4 19c1.72.46 8.6.46 8.6.46s6.88 0 8.6-.46a2.78 2.78 0 0 0 1.94-2 29 29 0 0 0 .46-5.25 29 29 0 0 0-.46-5.33z"/><polygon points="9.75 15.02 15.5 11.75 9.75 8.48 9.75 15.02"/></symbol>
  <symbol id="x-logo" viewBox="0 0 24 24"><path fill="currentColor" stroke="none" d="M18.901 1.153h3.68l-8.04 9.19L24 22.846h-7.406l-5.8-7.584-6.638 7.584H.474l8.6-9.83L0 1.154h7.594l5.243 6.932ZM17.61 20.644h2.039L6.486 3.24H4.298Z"/></symbol>
</svg>
